<svg xmlns="http://www.w3.org/2000/svg" xmlns:xlink="http://www.w3.org/1999/xlink" width="600" zoomAndPan="magnify" viewBox="0 0 450 211.499994" height="282" preserveAspectRatio="xMidYMid meet" version="1.0"><defs><g/><clipPath id="ebb9229d03"><path d="M 75.355469 89 L 91 89 L 91 95 L 75.355469 95 Z M 75.355469 89 " clip-rule="nonzero"/></clipPath><clipPath id="df0f338531"><path d="M 92 75.339844 L 165.890625 75.339844 L 165.890625 135.941406 L 92 135.941406 Z M 92 75.339844 " clip-rule="nonzero"/></clipPath></defs><g clip-path="url(#ebb9229d03)"><path fill="#ed1f30" d="M 90.976562 92 C 90.976562 90.605469 89.855469 89.476562 88.476562 89.476562 L 77.894531 89.476562 C 76.511719 89.476562 75.394531 90.605469 75.394531 92 C 75.394531 93.390625 76.511719 94.519531 77.894531 94.519531 L 88.476562 94.519531 C 89.855469 94.519531 90.976562 93.390625 90.976562 92 " fill-opacity="1" fill-rule="nonzero"/></g><path fill="#ed1f30" d="M 100.328125 99.421875 C 100.328125 98.027344 99.207031 96.898438 97.828125 96.898438 L 86.753906 96.898438 C 85.371094 96.898438 84.253906 98.027344 84.253906 99.421875 C 84.253906 100.816406 85.371094 101.941406 86.753906 101.941406 L 97.828125 101.941406 C 99.207031 101.941406 100.328125 100.816406 100.328125 99.421875 " fill-opacity="1" fill-rule="nonzero"/><g clip-path="url(#df0f338531)"><path fill="#ed1f30" d="M 159.5 89.835938 L 151.929688 108.660156 L 122.746094 108.660156 L 115.683594 89.835938 Z M 123.15625 130.894531 C 121.613281 130.894531 120.355469 129.628906 120.355469 128.070312 C 120.355469 126.511719 121.613281 125.246094 123.15625 125.246094 C 124.703125 125.246094 125.960938 126.511719 125.960938 128.070312 C 125.960938 129.628906 124.703125 130.894531 123.15625 130.894531 Z M 144.472656 130.894531 C 142.925781 130.894531 141.667969 129.628906 141.667969 128.070312 C 141.667969 126.511719 142.925781 125.246094 144.472656 125.246094 C 146.015625 125.246094 147.273438 126.511719 147.273438 128.070312 C 147.273438 129.628906 146.015625 130.894531 144.472656 130.894531 Z M 116.320312 116.789062 L 115.320312 119.546875 C 115.039062 120.320312 115.152344 121.183594 115.621094 121.859375 C 116.011719 122.425781 116.613281 122.796875 117.28125 122.902344 C 116.082031 124.285156 115.355469 126.09375 115.355469 128.070312 C 115.355469 132.410156 118.855469 135.941406 123.15625 135.941406 C 127.460938 135.941406 130.960938 132.410156 130.960938 128.070312 C 130.960938 126.109375 130.246094 124.316406 129.066406 122.9375 L 138.566406 122.9375 C 137.382812 124.316406 136.667969 126.109375 136.667969 128.070312 C 136.667969 132.410156 140.167969 135.941406 144.472656 135.941406 C 148.773438 135.941406 152.273438 132.410156 152.273438 128.070312 C 152.273438 126.109375 151.558594 124.316406 150.378906 122.9375 L 152.273438 122.9375 C 153.65625 122.9375 154.773438 121.808594 154.773438 120.414062 C 154.773438 119.023438 153.65625 117.894531 152.273438 117.894531 L 121.246094 117.894531 L 122.765625 113.703125 L 153.613281 113.703125 C 154.632812 113.703125 155.546875 113.082031 155.929688 112.128906 L 165.53125 88.261719 C 165.84375 87.484375 165.753906 86.601562 165.289062 85.90625 C 164.824219 85.210938 164.046875 84.792969 163.214844 84.792969 L 113.792969 84.792969 L 110.851562 76.964844 C 110.484375 75.984375 109.554688 75.335938 108.515625 75.335938 L 99.761719 75.335938 C 98.382812 75.335938 97.261719 76.464844 97.261719 77.859375 C 97.261719 79.25 98.382812 80.378906 99.761719 80.378906 L 106.789062 80.378906 L 109.703125 88.152344 C 109.714844 88.191406 109.730469 88.226562 109.746094 88.261719 L 110.199219 89.476562 L 95.144531 89.476562 C 93.765625 89.476562 92.644531 90.605469 92.644531 92 C 92.644531 93.390625 93.765625 94.519531 95.144531 94.519531 L 112.09375 94.519531 L 112.984375 96.898438 L 104.6875 96.898438 C 103.308594 96.898438 102.1875 98.027344 102.1875 99.421875 C 102.1875 100.816406 103.308594 101.941406 104.6875 101.941406 L 114.878906 101.941406 L 115.769531 104.320312 L 96.289062 104.320312 C 94.90625 104.320312 93.789062 105.449219 93.789062 106.84375 C 93.789062 108.238281 94.90625 109.367188 96.289062 109.367188 L 117.664062 109.367188 L 118.351562 111.195312 L 118.152344 111.746094 L 109.441406 111.746094 C 108.058594 111.746094 106.941406 112.875 106.941406 114.265625 C 106.941406 115.660156 108.058594 116.789062 109.441406 116.789062 L 116.320312 116.789062 " fill-opacity="1" fill-rule="nonzero"/></g><g fill="#320405" fill-opacity="1"><g transform="translate(171.365327, 116.340654)"><g><path d="M 14.414062 -13.59375 L 14.414062 -9.273438 L 22.234375 -9.273438 C 21.265625 -6.59375 18.324219 -4.804688 14.972656 -4.804688 C 10.28125 -4.804688 7.1875 -8.15625 7.1875 -13 C 7.1875 -17.878906 10.355469 -21.230469 14.972656 -21.230469 C 18.25 -21.230469 21.007812 -19.480469 22.125 -16.6875 L 27.933594 -16.6875 C 26.703125 -22.53125 21.339844 -26.628906 14.859375 -26.628906 C 7.152344 -26.628906 1.453125 -20.78125 1.453125 -13 C 1.453125 -5.175781 7.300781 0.597656 14.972656 0.597656 C 22.792969 0.597656 28.269531 -5.4375 28.269531 -13.59375 Z M 14.414062 -13.59375 "/></g></g></g><g fill="#320405" fill-opacity="1"><g transform="translate(201.049244, 116.340654)"><g><path d="M 12.140625 0.597656 C 18.363281 0.597656 23.015625 -3.984375 23.015625 -10.054688 C 23.015625 -16.125 18.363281 -20.671875 12.140625 -20.671875 C 5.921875 -20.671875 1.265625 -16.125 1.265625 -10.054688 C 1.265625 -3.984375 5.921875 0.597656 12.140625 0.597656 Z M 12.140625 -4.542969 C 9.011719 -4.542969 6.777344 -6.777344 6.777344 -10.054688 C 6.777344 -13.296875 9.011719 -15.566406 12.140625 -15.566406 C 15.269531 -15.566406 17.503906 -13.296875 17.503906 -10.054688 C 17.503906 -6.777344 15.269531 -4.542969 12.140625 -4.542969 Z M 12.140625 -4.542969 "/></g></g></g><g fill="#320405" fill-opacity="1"><g transform="translate(225.369943, 116.340654)"><g><path d="M 12.140625 0.597656 C 18.363281 0.597656 23.015625 -3.984375 23.015625 -10.054688 C 23.015625 -16.125 18.363281 -20.671875 12.140625 -20.671875 C 5.921875 -20.671875 1.265625 -16.125 1.265625 -10.054688 C 1.265625 -3.984375 5.921875 0.597656 12.140625 0.597656 Z M 12.140625 -4.542969 C 9.011719 -4.542969 6.777344 -6.777344 6.777344 -10.054688 C 6.777344 -13.296875 9.011719 -15.566406 12.140625 -15.566406 C 15.269531 -15.566406 17.503906 -13.296875 17.503906 -10.054688 C 17.503906 -6.777344 15.269531 -4.542969 12.140625 -4.542969 Z M 12.140625 -4.542969 "/></g></g></g><g fill="#320405" fill-opacity="1"><g transform="translate(249.690642, 116.340654)"><g><path d="M 17.355469 -27.335938 L 17.355469 -18.996094 C 15.792969 -20.074219 13.929688 -20.671875 11.84375 -20.671875 C 5.734375 -20.671875 1.265625 -16.125 1.265625 -10.019531 C 1.265625 -3.949219 5.734375 0.632812 11.84375 0.632812 C 14.300781 0.632812 16.460938 -0.222656 18.136719 -1.640625 L 18.769531 0.0390625 L 22.792969 0.0390625 L 22.792969 -27.335938 Z M 12.289062 -4.507812 C 9.125 -4.507812 6.816406 -6.890625 6.816406 -10.019531 C 6.816406 -13.183594 9.125 -15.53125 12.289062 -15.53125 C 15.457031 -15.53125 17.765625 -13.183594 17.765625 -10.019531 C 17.765625 -6.890625 15.457031 -4.507812 12.289062 -4.507812 Z M 12.289062 -4.507812 "/></g></g></g><g fill="#320405" fill-opacity="1"><g transform="translate(275.128684, 116.340654)"><g/></g></g><g fill="#320405" fill-opacity="1"><g transform="translate(284.030138, 116.340654)"><g><path d="M 8.601562 -5.214844 L 8.601562 -10.578125 L 17.652344 -10.578125 L 17.652344 -15.679688 L 8.601562 -15.679688 L 8.601562 -20.855469 L 18.621094 -20.855469 L 18.621094 -26.070312 L 2.980469 -26.070312 L 2.980469 0 L 19.03125 0 L 19.03125 -5.214844 Z M 8.601562 -5.214844 "/></g></g></g><g fill="#320405" fill-opacity="1"><g transform="translate(304.849854, 116.340654)"><g><path d="M 18.996094 -20.113281 L 18.4375 -18.210938 C 16.6875 -19.738281 14.414062 -20.671875 11.804688 -20.671875 C 5.773438 -20.671875 1.265625 -16.125 1.265625 -10.054688 C 1.265625 -3.984375 5.773438 0.597656 11.804688 0.597656 C 14.375 0.597656 16.609375 -0.296875 18.324219 -1.824219 L 18.808594 0 L 23.054688 0 L 23.054688 -20.113281 Z M 12.253906 -4.542969 C 9.085938 -4.542969 6.777344 -6.925781 6.777344 -10.054688 C 6.777344 -13.222656 9.085938 -15.566406 12.253906 -15.566406 C 15.417969 -15.566406 17.726562 -13.222656 17.726562 -10.054688 C 17.726562 -6.890625 15.417969 -4.542969 12.253906 -4.542969 Z M 12.253906 -4.542969 "/></g></g></g><g fill="#320405" fill-opacity="1"><g transform="translate(330.54861, 116.340654)"><g><path d="M 12.441406 -4.84375 C 10.429688 -4.84375 9.3125 -5.960938 9.3125 -7.894531 L 9.3125 -15.71875 L 14.785156 -15.71875 L 14.785156 -20.113281 L 9.238281 -20.113281 L 9.238281 -25.328125 L 8.195312 -25.328125 L 0.261719 -16.910156 L 0.261719 -15.71875 L 3.875 -15.71875 L 3.875 -7.152344 C 3.875 -2.71875 6.59375 0 11.023438 0 L 14.898438 0 L 14.898438 -4.84375 Z M 12.441406 -4.84375 "/></g></g></g><g fill="#320405" fill-opacity="1"><g transform="translate(346.563779, 116.340654)"><g><path d="M 9.722656 0.597656 C 14.824219 0.597656 18.175781 -2.085938 18.175781 -6.183594 C 18.175781 -11.097656 13.964844 -11.769531 10.6875 -12.363281 C 8.601562 -12.738281 6.890625 -13.074219 6.890625 -14.414062 C 6.890625 -15.566406 7.894531 -16.3125 9.570312 -16.3125 C 11.472656 -16.3125 12.589844 -15.53125 12.625 -13.929688 L 17.804688 -13.929688 C 17.765625 -17.953125 14.5625 -20.671875 9.722656 -20.671875 C 4.878906 -20.671875 1.640625 -18.027344 1.640625 -14.226562 C 1.640625 -9.496094 5.734375 -8.640625 8.9375 -8.082031 C 11.0625 -7.746094 12.8125 -7.335938 12.8125 -5.960938 C 12.8125 -4.617188 11.433594 -3.910156 9.945312 -3.910156 C 8.007812 -3.910156 6.628906 -4.804688 6.59375 -6.59375 L 1.304688 -6.59375 C 1.304688 -2.308594 4.691406 0.597656 9.722656 0.597656 Z M 9.722656 0.597656 "/></g></g></g></svg>